<svg id="visual" viewBox="0 0 960 540" width="960" height="540" xmlns="http://www.w3.org/2000/svg" xmlns:xlink="http://www.w3.org/1999/xlink" version="1.1"><path d="M0 220L22.8 231.8C45.7 243.7 91.3 267.3 137 273.5C182.7 279.7 228.3 268.3 274 268.3C319.7 268.3 365.3 279.7 411.2 275.8C457 272 503 253 548.8 244.7C594.7 236.3 640.3 238.7 686 251.8C731.7 265 777.3 289 823 285.5C868.7 282 914.3 251 937.2 235.5L960 220L960 541L937.2 541C914.3 541 868.7 541 823 541C777.3 541 731.7 541 686 541C640.3 541 594.7 541 548.8 541C503 541 457 541 411.2 541C365.3 541 319.7 541 274 541C228.3 541 182.7 541 137 541C91.3 541 45.7 541 22.8 541L0 541Z" fill="#000000" stroke-linecap="round" stroke-linejoin="miter"></path></svg>